<?xml version="1.0" encoding="iso-8859-1"?>
<!-- Generator: Adobe Illustrator 19.0.0, SVG Export Plug-In . SVG Version: 6.00 Build 0)  -->
<svg xmlns="http://www.w3.org/2000/svg" xmlns:xlink="http://www.w3.org/1999/xlink" version="1.1" id="Layer_1" x="0px" y="0px" viewBox="0 0 518.4 518.4" style="enable-background:new 0 0 518.4 518.4;" xml:space="preserve" width="512px" height="512px">
<g>
	<g>
		<g>
			<path d="M372.266,337.067c4.267,0,6.4-2.133,6.4-6.4l19.2-40.533l-55.467-27.733l-17.066,40.533c-2.133,2.133-2.133,6.4,0,8.533     c2.133,2.133,4.267,4.267,6.4,6.4c10.667,4.267,19.2,8.533,27.733,17.066c2.133,2.133,4.267,2.133,6.4,2.133     C370.133,339.201,370.133,339.201,372.266,337.067z" fill="#465c90"/>
			<path d="M421.333,311.467c-4.267-2.133-10.667,2.133-12.8,6.4l-23.467,51.2c0,2.133-2.133,4.267,0,6.4     c6.4,32-10.667,66.133-27.733,85.333c-17.066,17.066-46.934,27.733-78.934,27.733c-29.867,0-55.467-10.667-72.533-27.733     c-2.133-2.133-8.533-8.533-10.667-17.066c-2.133,2.133-4.267,6.4-8.533,6.4H80c-6.4,0-10.667-4.267-10.667-10.667V290.133     c0-6.4,4.267-10.667,10.667-10.667h106.667c6.4,0,10.667,4.267,10.667,10.667v136.533c4.267-8.533,10.667-14.934,19.2-17.066     c2.133,0,2.133,0,4.267-2.133c2.133-2.133,6.4-4.267,10.667-8.533c2.133-2.133,2.133-4.267,2.133-6.4     c0-2.133,0-2.133,2.133-4.267c2.133-4.267,2.133-8.533,4.267-14.934v-2.133c0-2.133,0-4.267,0-6.4v-72.533     c0-6.4,4.267-10.667,10.667-10.667H316.8l8.533-21.333H77.867c-6.4,0-10.667-4.267-10.667-10.667v-85.333     c0-6.4,4.267-10.667,10.667-10.667h285.867c2.133,0,4.267,0,4.267,2.133l21.333-49.066c2.133-2.133,0-6.4,0-10.667     c-2.133-2.133-4.267-4.267-8.533-4.267h-4.267h-320C26.667,91.733,3.2,115.2,3.2,145.066v320     c0,29.867,23.467,53.333,53.333,53.333h320c29.867,0,53.333-23.467,53.333-53.333V328.533     C429.866,317.867,425.599,313.6,421.333,311.467z" fill="#465c90"/>
			<path d="M272,354.133c-12.8,12.8-17.066,25.6-19.2,36.267c-2.133,8.533-4.267,14.934-10.667,21.333     c-12.8,12.8-19.2,14.934-19.2,14.934c-4.267,2.133-6.4,4.267-6.4,8.533c0,4.267,0,6.4,2.133,10.667     c14.934,14.934,34.133,21.333,57.6,21.333c25.6,0,51.2-8.533,64-21.333c21.333-21.333,34.133-66.133,10.667-89.6     C329.599,332.8,295.466,332.8,272,354.133z" fill="#465c90"/>
			<path d="M478.933,0c-14.934,0-27.733,8.533-34.133,21.333L350.933,243.2l55.467,27.733L510.933,51.2     c2.133-4.267,4.267-10.667,4.267-17.066C515.2,14.934,498.133,0,478.933,0z" fill="#465c90"/>
		</g>
	</g>
</g>
<g>
</g>
<g>
</g>
<g>
</g>
<g>
</g>
<g>
</g>
<g>
</g>
<g>
</g>
<g>
</g>
<g>
</g>
<g>
</g>
<g>
</g>
<g>
</g>
<g>
</g>
<g>
</g>
<g>
</g>
</svg>
